# xmcd
#
# Track frame offsets:
#	150
#	23157
#	47320
#	74289
#	99104
#	128745
#	147135
#	167079
#	193684
#	218783
#	241959
#	270749
#	287710
#
# Disc length: 4229 seconds
#
# Revision: 0
# Processed by: cddbd v1.5.2PL0 Copyright (c) Steve Scherf et al.
# Submitted via: EasyCDDAExtractor 16.0.1.1
#
DISCID=b310830d
DTITLE=Indigenous - Indigenous-Featuring Mato Nanji
DYEAR=2012
DGENRE=Blues
TTITLE0=Free Yourself, Free Your Mind
TTITLE1=Everywhere I Go
TTITLE2=Jealousy
TTITLE3=Someone Like You
TTITLE4=I Was Wrong To Leave You
TTITLE5=No Matter What It Takes
TTITLE6=Storm
TTITLE7=Find My Way
TTITLE8=All Those Lies
TTITLE9=That Way I Feel
TTITLE10=Wake Up
TTITLE11=By My Side
TTITLE12=When Tomorrow Comes
EXTD=
EXTT0=
EXTT1=
EXTT2=
EXTT3=
EXTT4=
EXTT5=
EXTT6=
EXTT7=
EXTT8=
EXTT9=
EXTT10=
EXTT11=
EXTT12=
PLAYORDER=
